/* XPM */
static char *result[] = {
/* columns rows colors chars-per-pixel */
"32 32 112 2 ",
"   c #211F30",
".  c #233928",
"X  c #3B3F2B",
"o  c #3A2433",
"O  c #313532",
"+  c #323532",
"@  c #31353D",
"#  c #583831",
"$  c #612639",
"%  c #622639",
"&  c #692D3A",
"*  c #77283C",
"=  c #66373F",
"-  c #6A303A",
";  c #266C17",
":  c #276D17",
">  c #26601B",
",  c #26601C",
"<  c #277F11",
"1  c #277914",
"2  c #307019",
"3  c #255320",
"4  c #325722",
"5  c #3F5029",
"6  c #405029",
"7  c #43592A",
"8  c #4A5636",
"9  c #495830",
"0  c #4A6027",
"q  c #526037",
"w  c #566B30",
"e  c #637639",
"r  c #6F3A46",
"t  c #743241",
"y  c #3E494A",
"u  c #3F494A",
"i  c #414A4A",
"p  c #414B4A",
"a  c #4C5D56",
"s  c #4C5E56",
"d  c #6C444B",
"f  c #6E454B",
"g  c #684D50",
"h  c #506057",
"j  c #617654",
"k  c #5A7263",
"l  c #607664",
"z  c #8C2A3F",
"x  c #915237",
"c  c #B5593B",
"v  c #863D49",
"b  c #A12C42",
"n  c #AC2D44",
"m  c #B62E45",
"M  c #B72E45",
"N  c #AE3B43",
"B  c #B33F44",
"V  c #BF3846",
"C  c #CC3048",
"Z  c #CF3449",
"A  c #CB3B48",
"S  c #CF3E48",
"D  c #D23749",
"F  c #D33949",
"G  c #D53A49",
"H  c #D83D49",
"J  c #D83E4A",
"K  c #B34044",
"L  c #CB4547",
"P  c #D74649",
"I  c #DB4049",
"U  c #DB414A",
"Y  c #DE444A",
"T  c #D84849",
"R  c #E1474A",
"E  c #E3494A",
"W  c #E44A4A",
"Q  c #E75B54",
"!  c #E8655C",
"~  c #EA6B5E",
"^  c #28860F",
"/  c #488B18",
"(  c #449014",
")  c #4D9316",
"_  c #699D1C",
"`  c #72A11D",
"'  c #5C8B2D",
"]  c #76B230",
"[  c #6A876B",
"{  c #688670",
"}  c #688770",
"|  c #6B8971",
" . c #708B71",
".. c #708C71",
"X. c #789678",
"o. c #779B7C",
"O. c #779B7D",
"+. c #83A13E",
"@. c #8BB630",
"#. c #80A17E",
"$. c #EF836D",
"%. c #F18B72",
"&. c #A4CC42",
"*. c #7EA683",
"=. c #87AC84",
"-. c #85B089",
";. c #8FB78B",
":. c #8BBB8F",
">. c #97C191",
",. c #93C596",
"<. c #96C796",
"1. c #9FCC98",
/* pixels */
"<.,.,.,.,.,.,.,.,.,.,.,.,.,.,.,.,.,.,.,.,.,.,.,.,.,.,.,.,.,.,.<.",
"1.<.,.,.,.,.,.,.,.,.,.,.,.,.,.,.,.,.,.,.,.,.,.,.,.,.,.,.,.,.<.1.",
"1.1.<.,.,.,.,.,.,.,.,.,.,.,.,.,.,.,.,.,.,.,.,.,.,.,.,.,.,.<.1.1.",
"1.1.1.<.,.,.,.,.,.,.,.,.,.,.,.,.,.,.,.,.,.,.,.,.,.,.,.,.<.1.1.1.",
"1.1.1.1.<.,.,.,.,.,.,.,.,.,.,.,.,.,.,.,.,.,.,.,.,.,.,.<.1.1.1.1.",
"1.1.1.1.1.<.,.,.,.-.O.O.O.:.,.,.,.,.,.,.,.,.,.,.,.,.<.1.1.1.1.1.",
"1.1.1.1.1.1.<.,.,.a       -.,.,.,.,.,.,.,.,.,.,.,.<.1.1.1.1.1.1.",
"1.1.1.1.1.1.1.<.,.a   8 q [ { ,.,.,.,.,.,.,.,.,.<.1.1.1.1.1.1.1.",
"1.1.1.1.1.1.1.1.<.a   +.&.+   ,.,.,.,.,.,.,.,.<.1.1.1.1.1.1.1.1.",
"1.1.1.1.1.;. . . .u   ' ] 7 6 { { ,.,.,.,.,.<.1.1.1.1.1.1.1.1.1.",
"1.1.1.1.1...          : ^ _ `     ,.,.,.,.<.1.1.1.1.1.1.1.1.1.1.",
"1.1.1.;.l j e w 0 4 3 3 3 / )     ,.,.,.<.1.1.1.1.1.1.1.1.1.1.1.",
"1.1.1.#.  q &.@.` ( ^ .   1 ^     ,.,.<.1.1.1.1.1.1.1.1.1.1.1.1.",
"1.1.1.#.  O q 9 5 2 ^ ; > < ^     s s h h h  .1.1.1.1.1.1.1.1.1.",
"1.1.1.#.          , ^ ^ ^ ^ ^               h 1.1.1.1.1.1.1.1.1.",
"1.1.1.>.#.l   $ b # . x c X . b b B B B N b v i  .1.1.1.1.1.1.1.",
"1.1.1.1.1...  * C %   K W o   C C W W W Y C z   l 1.1.1.1.1.1.1.",
"1.1.1.#.@ = L P R P L T W L L R R W W W W R S m t @ X.1.1.1.1.1.",
"1.1.1.#.  - W W W W W W W W W W W W W W W W I C *    .1.1.1.1.1.",
"1.1.1.#.  - W ~ %.%.%.Q W $.%.W W W W W W W I C *    .1.1.1.1.1.",
"1.1.1.#.  - W ~ %.%.%.Q W $.%.W W W W W W W I C *    .1.1.1.1.1.",
"1.1.1.#.  - W ~ %.%.%.Q W W W W W W R C D W I C *    .1.1.1.1.1.",
"1.1.1.#.  & R ! $.$.$.Q W W W W W W R Z F W I C *    .1.1.1.1.1.",
"1.1.1.#.  $ C H W W W W W W W W W W W W W W I C *    .1.1.1.1.1.",
"1.1.1.=.p f b V Y R W W W W W W W W W W E Y A b r p #.1.1.1.1.1.",
"1.1.1.1.1...  * C I W W W W W W W W W W Y C z   k <.1.1.1.1.1.1.",
"1.1.1.1.1.|   * C G U U U U U U U U U U J C z   k ,.<.1.1.1.1.1.",
"1.1.1.1.<.}   * C C C C C C C C C C C C C C z   k ,.,.<.1.1.1.1.",
"1.1.1.<.,.*.k g * n C C C C C C C C C C M * d k O.,.,.,.<.1.1.1.",
"1.1.<.,.,.,.,.k   z C C C C C C C C C C b   a ,.,.,.,.,.,.<.1.1.",
"1.<.,.,.,.,.,.*.{ g $ $ $ $ $ $ $ $ $ $ d { o.,.,.,.,.,.,.,.<.1.",
"<.,.,.,.,.,.,.,.,.a                     y ,.,.,.,.,.,.,.,.,.,.<."
};
