/* XPM */
static char *result[] = {
/* columns rows colors chars-per-pixel */
"32 32 117 2 ",
"   c #211F30",
".  c #262435",
"X  c #343043",
"o  c #343044",
"O  c #343244",
"+  c #353244",
"@  c #353344",
"#  c #353647",
"$  c #39384B",
"%  c #3A384B",
"&  c #414251",
"*  c #424355",
"=  c #444557",
"-  c #48475B",
";  c #464859",
":  c #4A4C5E",
">  c #4C4F5F",
",  c #4D505E",
"<  c #4F5163",
"1  c #535665",
"2  c #555967",
"3  c #565469",
"4  c #565968",
"5  c #585C6A",
"6  c #616172",
"7  c #606472",
"8  c #616572",
"9  c #616475",
"0  c #626775",
"q  c #636775",
"w  c #636874",
"e  c #656A77",
"r  c #666C7E",
"t  c #6A697B",
"y  c #686D7A",
"u  c #696E7C",
"i  c #696E7D",
"p  c #6A6F7C",
"a  c #6A6E7D",
"s  c #6D727E",
"d  c #843346",
"f  c #883546",
"g  c #8B3846",
"h  c #8E3B46",
"j  c #963F45",
"k  c #9A4245",
"l  c #9A4346",
"z  c #9D4545",
"x  c #9D4848",
"c  c #A14744",
"v  c #A44C46",
"b  c #A04C49",
"n  c #A75148",
"m  c #A7534A",
"M  c #AA564A",
"N  c #AB584B",
"B  c #A9584C",
"V  c #AD5B4C",
"C  c #AD5C4E",
"Z  c #B05F4E",
"A  c #B0604E",
"S  c #B36450",
"D  c #B56651",
"F  c #B66952",
"G  c #B66A52",
"H  c #B76C53",
"J  c #B96E54",
"K  c #756C86",
"L  c #746D86",
"P  c #746D87",
"I  c #6B7182",
"U  c #6E7381",
"Y  c #6F7382",
"T  c #707580",
"R  c #717684",
"E  c #707686",
"W  c #737887",
"Q  c #747987",
"!  c #747A87",
"~  c #78758A",
"^  c #78768A",
"/  c #797F8C",
"(  c #7D808A",
")  c #79808C",
"_  c #7A808C",
"`  c #7C838E",
"'  c #7C8491",
"]  c #828A97",
"[  c #838A97",
"{  c #838B97",
"}  c #848A96",
"|  c #858D99",
" . c #888F9C",
".. c #898F9C",
"X. c #8A939E",
"o. c #8F99A3",
"O. c #959FA9",
"+. c #979EA8",
"@. c #9AA0AA",
"#. c #9AA3AD",
"$. c #9DA2AD",
"%. c #9FA9B2",
"&. c #9FA9B3",
"*. c #A2A7B0",
"=. c #A5AFB8",
"-. c #AAB5BD",
";. c #B5A9C9",
":. c #AFBBC3",
">. c #B4BFC7",
",. c #BBB8D0",
"<. c #B4C0C7",
"1. c #B9C5CB",
"2. c #BEC9CF",
"3. c #C8D3D7",
"4. c #CED7DB",
"5. c #CDD7DC",
"6. c #D8E1E4",
/* pixels */
",.,.,.,.,.,.,.,.,.,.,.,.,.,.,.,.;.;.;.;.;.;.;.;.;.;.;.;.;.;.;.;.",
",.,.,.,.,.,.,.,.,.,.,.,.,.,.,.,.;.;.;.;.;.;.;.;.;.;.;.;.;.;.;.;.",
",.,.,.^ + + + + + + + + + + + + X X X X X X X X X X X X K ;.;.;.",
",.,.^ 6 4 y y y y y y y y y y y y y s ( p T ( ( T y y y t L ;.;.",
",.,.@ 1 X.:.:.:.:.:.:.:.:.:.:.:.:.:.1.6.>.2.6.6.2.:.:.:.y X ;.;.",
",.,.@ 1 X.:.:.:.:.:.:.:.:.:.:.:.:.:.1.6.>.2.6.6.2.:.:.:.y X ;.;.",
",.,.@ ; E o.o.o.o.o.o.o.o.o.o.o.o.o.#.1.O.%.1.1.&.o.o.o.5 X ;.;.",
",.,.@ # < U U a 7 7 u U U U U U U U W  .R Q ) ) ! U U 0 & X ;.;.",
",.,.@   . - - $     % - - - - - - - - - - $     % - - .   X ;.;.",
",.,.@ * r | | 7   c c c c c c c c c c c c c c   : I | | 1 X ;.;.",
",.,.@ > ' &.&./ $ Z Z Z Z Z Z Z Z Z Z Z Z M c $ 9 ] &.&.7 X ;.;.",
",.,.@ 1 X.:.:...- G G G G G G G G G H J G C z - Y o.:.:.y X ;.;.",
",.,.@ 1 X.:.:...- c c c c c c c c c n J v j d - Y o.:.:.y X ;.;.",
",.,.@ 1 X.:.:...- S S S S S S S S S D J S B k - Y o.:.:.y X ;.;.",
",.,.@ 1 X.:.:...- A F H A A A A A A A A A m j - Y o.:.:.y X ;.;.",
",.,.@ 1 X.:.:...- c A F c c c c c c c c c j d - Y o.:.:.y X ;.;.",
";.;.o 1 X.:.:...- J J J J J J J J J J J J Z c - Y o.:.:.y O ,.,.",
";.;.o 1 X.:.:...- M M M M M M M M M M M M b h - Y o.:.:.y O ,.,.",
";.;.o 1 X.:.:...- n n n n n n n n n n n n x g - Y o.:.:.y O ,.,.",
";.;.o 1 X.:.:...- J J J J J J J J J J J J Z c - Y o.:.:.y O ,.,.",
";.;.o 1 X.:.:...- v v v v v v v v v M J n l f - Y o.:.:.y O ,.,.",
";.;.o 1 X.:.:.} % M M M M M M M M M V J N b h % i o.:.:.y O ,.,.",
";.;.o 1 X.:.:._   J J J J J J J J J J J J Z c   7 o.:.:.y O ,.,.",
";.;.o   . - - $     % - - - - - - - - - - $     % - - .   O ,.,.",
";.;.o & e  . .[ ) ) {  . .$.*.*. .+.@. . .[ ) ) {  . .` , O ,.,.",
";.;.o 1 X.:.:.:.:.:.:.:.:.5.6.6.:.3.4.:.:.:.:.:.:.:.:.:.y O ,.,.",
";.;.o 1 X.:.:.:.:.:.:.:.:.5.6.6.:.3.4.:.:.:.:.:.:.:.:.:.y O ,.,.",
";.;.o = I X.X.X.X.X.X.X.X.-.<.<.X.=.-.X.X.X.X.X.X.X.X.X.2 O ,.,.",
";.;.P 3 = 1 1 1 1 1 1 1 1 q y y 1 8 w 1 1 1 1 1 1 1 1 1 6 ~ ,.,.",
";.;.;.K o o o o o o o o o o o o @ @ @ @ @ @ @ @ @ @ @ @ ^ ,.,.,.",
";.;.;.;.;.;.;.;.;.;.;.;.;.;.;.;.,.,.,.,.,.,.,.,.,.,.,.,.,.,.,.,.",
";.;.;.;.;.;.;.;.;.;.;.;.;.;.;.;.,.,.,.,.,.,.,.,.,.,.,.,.,.,.,.,."
};
