/* XPM */
static char *result[] = {
/* columns rows colors chars-per-pixel */
"32 32 120 2 ",
"   c #211F30",
".  c #292231",
"X  c #2B2432",
"o  c #2C2734",
"O  c #312433",
"+  c #332634",
"@  c #392734",
"#  c #3A2436",
"$  c #342935",
"%  c #352C36",
"&  c #3F2835",
"*  c #3E2E37",
"=  c #372F38",
"-  c #38323B",
";  c #3A343D",
":  c #442F38",
">  c #5A2E3B",
",  c #5F2B3E",
"<  c #5F2C3E",
"1  c #443038",
"2  c #48393E",
"3  c #5D333C",
"4  c #602F3D",
"5  c #71383C",
"6  c #663940",
"7  c #673D42",
"8  c #783143",
"9  c #4D5651",
"0  c #4F5853",
"q  c #525A53",
"w  c #555F57",
"e  c #664445",
"r  c #7A4743",
"t  c #506057",
"y  c #813D3F",
"u  c #843346",
"i  c #8B3846",
"p  c #934144",
"a  c #9A4245",
"s  c #91424A",
"d  c #974A4B",
"f  c #805147",
"g  c #99534A",
"h  c #9E524A",
"j  c #935A4B",
"k  c #935B4B",
"l  c #995C4D",
"z  c #9F5D4E",
"x  c #974E50",
"c  c #A14744",
"v  c #A44C46",
"b  c #A75148",
"n  c #A7574C",
"m  c #A95349",
"M  c #AA564A",
"N  c #A7584E",
"B  c #A95B4F",
"V  c #AD5B4C",
"C  c #AF5D4D",
"Z  c #AE5E4E",
"A  c #B05F4E",
"S  c #A55E50",
"D  c #A05B55",
"F  c #AC5F51",
"G  c #886351",
"H  c #8E6F57",
"J  c #B0604E",
"K  c #B1624F",
"L  c #AB6051",
"P  c #B06653",
"I  c #B26753",
"U  c #B66952",
"Y  c #B76C53",
"T  c #B76D55",
"R  c #B56D56",
"E  c #B96E54",
"W  c #AF735B",
"Q  c #AA755B",
"!  c #A37E5F",
"~  c #A37F5F",
"^  c #B97057",
"/  c #BC7458",
"(  c #BC765A",
")  c #BF7A5B",
"_  c #BE7F5F",
"`  c #947C64",
"'  c #967F66",
"]  c #B97B60",
"[  c #708B71",
"{  c #9A866E",
"}  c #9B8971",
"|  c #A98060",
" . c #AA8060",
".. c #B08161",
"X. c #B68262",
"o. c #B68263",
"O. c #BC8364",
"+. c #C2805E",
"@. c #C28562",
"#. c #C18A67",
"$. c #C78C64",
"%. c #C99268",
"&. c #CA976C",
"*. c #CF9E6E",
"=. c #D4A978",
"-. c #D5AC7B",
";. c #D7AE7D",
":. c #85B089",
">. c #88B289",
",. c #D8B180",
"<. c #DBB685",
"1. c #DCB887",
"2. c #D8B68D",
"3. c #DFBE8D",
"4. c #DDBD8F",
"5. c #93C596",
"6. c #96C796",
"7. c #9FCC98",
"8. c #E2C492",
"9. c #E4C997",
/* pixels */
"6.5.5.5.5.5.5.5.5.5.5.5.5.5.5.5.5.5.5.5.5.5.5.5.5.5.5.5.5.5.5.6.",
"7.6.5.:.:.:.:.:.:.:.:.:.:.:.:.:.:.:.:.:.:.:.:.:.:.:.:.:.:.5.6.7.",
"7.7.>.                                                    >.7.7.",
"7.[ q f G H H H H H H H H H H H H ` { H ' } } } } } } } } w [ 7.",
"7.t $ E @.&.*.*.*.*.*.*.*.*.*.*.*.,.3.*.<.8.8.8.8.8.2.4.8.; t 7.",
"7.t $ E d x *.*.*.*.*.*.*.*.*.*.*.*.*.*.*.*.*.*.*.*.x D *.= t 7.",
"7.t + b n P ) ) ) ) ) ) ) ) ) ) ) ) ) ) ) ) ) ) ) ) P R ) $ t 7.",
"7.t O y g L L l k k S L L L L L L L L L L L k k l L L S k X t 7.",
"7.t     < u u #     8 u u u u u u u u u u 8     # u u ,     t 7.",
"7.t . y h F F : @ y a a a a a a a a a a a p y @ & a N z j $ t 7.",
"7.t + M ^ +.+.7 3 M M M M M M M M M M M M m c 4 3 M ( +.+.% t 7.",
"7.t $ E $.*.*.x s E E E E E E E E E E E E U c i s E %.*.*.= t 7.",
"7.t $ E $.*.*.x s E E E E E C v E C v v K U c i s E %.-.8.; t 7.",
"7.t $ E $.*.*.x s E E E E E K M E V c c J U c i s E %.;.9.; t 7.",
"7.t $ E $.*.*.x s E E E E E E E E V c c J U c i s E %.;.9.; t 7.",
"7.t $ E $.*.*.x s E E E E E E E E E E E E U c i s E %.;.9.; t 7.",
"7.t $ E $.*.*.x s E E E E E E E E E E E E U c i s E %.;.9.; t 7.",
"7.t $ E $.*.*.x s E E E E E E E E E E E E U c i s E %.;.9.; t 7.",
"7.t $ E $.*.*.x s E E E E E E E E E U c J U c i s E %.*.*.= t 7.",
"7.t $ E $.*.*.x s E E E E E E E E E Y A U U c i s E %.=.1.- t 7.",
"7.t $ E $.*.*.x s E E E E E E E E E E E E U c i s E %.-.8.; t 7.",
"7.t $ E $.*.*.x s E E E E E E E E E E E E U c i s E %.*.*.= t 7.",
"7.t $ E $.*.*.e 6 E E E E E E E E E E E E U c > 6 E %.*.*.= t 7.",
"7.t $ k Q O.O.2 * k S L L L L L L L L L L B y @ 1 L ] o.~ o t 7.",
"7.t     < u u #     8 u u u u u u u u u u 8     # u u ,     t 7.",
"7.t X j W O.O.| ! ! O.O.O.O.O.O.O.O.O.O.O.X.! !  .O.O...! = t 7.",
"7.t $ E _ #.*.*.*.*.*.*.*.*.*.*.*.*.*.*.*.*.*.*.*.*.#.#.*.= t 7.",
"7.t $ E d x *.*.*.*.*.*.*.*.*.*.*.*.*.*.*.*.*.*.*.*.x D *.= t 7.",
"7.t O v Z I / / / / / / / / / / / / / / / / / / / / T T / $ t 7.",
"7.[ 9 5 r f f f f f f f f f f f f f f f f f f f f f f f f 0 [ 7.",
"7.6.:.                                                    :.6.7.",
"6.5.5.:.:.:.:.:.:.:.:.:.:.:.:.:.:.:.:.:.:.:.:.:.:.:.:.:.:.5.5.6."
};
