/* XPM */
static char *c9354f3443b341c1f9445d8071209ff3yB7w7Ahlu8rmujOV_2[] = {
/* columns rows colors chars-per-pixel */
"32 32 5 1 ",
"  c None",
". c #001F08",
"X c #004110",
"o c #00711C",
"O c #00FF41",
/* pixels */
"                                ",
"                                ",
"               Oo               ",
"              OOoo              ",
"             OOOooo             ",
"            OOOOoooo            ",
"           OOOOOooooo           ",
"          OOOOOOoooooo          ",
"         OOOOOOOooooooo         ",
"        OOOOOOOOoooooooo        ",
"        oOOOOOOOoooooooX        ",
"        oooOOOOOoooooXXX        ",
"        oooooOOOoooXXXXX        ",
"        oooooooOoXXXXXXX        ",
"        ooooooooXXXXXXXX        ",
"        ooooooooXXXXXXXX        ",
"        ooooooooXXXXXXXX        ",
"        ooooooooXXXXXXXX        ",
"        ooooooooXXXXXXXX        ",
"        ooooooooXXXXXXXX        ",
"        ooooooooXXXXXXXX        ",
"        ooooooooXXXXXXXX        ",
"        ooooooooXXXXXXXX        ",
"         oooooooXXXXXXX         ",
"          XoooooXXXXX.          ",
"           XXoooXXX..           ",
"            XXXoX...            ",
"             XXX...             ",
"              XX..              ",
"               X.               ",
"                                ",
"                                "
};
