/* XPM */
static char *c9354f3443b341c1f9445d8071209ff3yB7w7Ahlu8rmujOV_1[] = {
/* columns rows colors chars-per-pixel */
"32 32 4 1 ",
"  c None",
". c #001F08",
"X c #004110",
"o c #00711C",
/* pixels */
"                                ",
"                                ",
"               oo               ",
"              oooo              ",
"              oooo              ",
"             oooooo             ",
"             oooooo             ",
"            oooooooo            ",
"            oooooooo            ",
"           oooooooooo           ",
"           oooooooooo           ",
"          oooooooooooo          ",
"          XXXXXXXXXXXX          ",
"          XXXXXXXXXXXX          ",
"          XXXXXXXXXXXX          ",
"          XXXXXXXXXXXX          ",
"          XXXXXXXXXXXX          ",
"          XXXXXXXXXXXX          ",
"          XXXXXXXXXXXX          ",
"          XXXXXXXXXXXX          ",
"          XXXXXXXXXXXX          ",
"          XXXXXXXXXXXX          ",
"          XXXXXXXXXXXX          ",
"          XXXXXXXXXXXX          ",
"          XXXXXXXXXXXX          ",
"           ..........           ",
"            ........            ",
"             ......             ",
"              ....              ",
"               ..               ",
"                                ",
"                                "
};
