/* XPM */
static char *result[] = {
/* columns rows colors chars-per-pixel */
"32 32 3 1 ",
"  c #93C596",
". c #96C796",
"X c #9FCC98",
/* pixels */
".                              .",
"X.                            .X",
"XX.                          .XX",
"XXX.                        .XXX",
"XXXX.                      .XXXX",
"XXXXX.                    .XXXXX",
"XXXXXX.                  .XXXXXX",
"XXXXXXX.                .XXXXXXX",
"XXXXXXXX.              .XXXXXXXX",
"XXXXXXXXX.            .XXXXXXXXX",
"XXXXXXXXXX.          .XXXXXXXXXX",
"XXXXXXXXXXX.        .XXXXXXXXXXX",
"XXXXXXXXXXXX.      .XXXXXXXXXXXX",
"XXXXXXXXXXXXX.    .XXXXXXXXXXXXX",
"XXXXXXXXXXXXXX.  .XXXXXXXXXXXXXX",
"XXXXXXXXXXXXXXX..XXXXXXXXXXXXXXX",
"XXXXXXXXXXXXXXX..XXXXXXXXXXXXXXX",
"XXXXXXXXXXXXXX.  .XXXXXXXXXXXXXX",
"XXXXXXXXXXXXX.    .XXXXXXXXXXXXX",
"XXXXXXXXXXXX.      .XXXXXXXXXXXX",
"XXXXXXXXXXX.        .XXXXXXXXXXX",
"XXXXXXXXXX.          .XXXXXXXXXX",
"XXXXXXXXX.            .XXXXXXXXX",
"XXXXXXXX.              .XXXXXXXX",
"XXXXXXX.                .XXXXXXX",
"XXXXXX.                  .XXXXXX",
"XXXXX.                    .XXXXX",
"XXXX.                      .XXXX",
"XXX.                        .XXX",
"XX.                          .XX",
"X.                            .X",
".                              ."
};
