/* XPM */
static char *result[] = {
/* columns rows colors chars-per-pixel */
"32 32 2 1 ",
"  c #B5A9C9",
". c #BBB8D0",
/* pixels */
"................                ",
"................                ",
"................                ",
"................                ",
"................                ",
"................                ",
"................                ",
"................                ",
"................                ",
"................                ",
"................                ",
"................                ",
"................                ",
"................                ",
"................                ",
"................                ",
"                ................",
"                ................",
"                ................",
"                ................",
"                ................",
"                ................",
"                ................",
"                ................",
"                ................",
"                ................",
"                ................",
"                ................",
"                ................",
"                ................",
"                ................",
"                ................"
};
