/* XPM */
static char *result[] = {
/* columns rows colors chars-per-pixel */
"32 32 157 2 ",
"   c #211F30",
".  c #21252E",
"X  c #222C2C",
"o  c #382730",
"O  c #393531",
"+  c #4D3030",
"@  c #633830",
"#  c #643830",
"$  c #26601C",
"%  c #317D15",
"&  c #34711A",
"*  c #255320",
"=  c #43532B",
"-  c #78453A",
";  c #695F31",
":  c #526037",
">  c #6B6139",
",  c #637639",
"<  c #343244",
"1  c #454847",
"2  c #464256",
"3  c #464257",
"4  c #484558",
"5  c #484658",
"6  c #495F50",
"7  c #585B5B",
"8  c #735256",
"9  c #576247",
"0  c #726C52",
"q  c #524F62",
"w  c #585369",
"e  c #5B586C",
"r  c #686B63",
"t  c #736760",
"y  c #646276",
"u  c #6B647D",
"i  c #746B7A",
"p  c #8E4D3A",
"a  c #904830",
"s  c #914B31",
"d  c #9C4F31",
"f  c #A6512F",
"g  c #BC592F",
"h  c #A65130",
"j  c #A85838",
"k  c #9C643B",
"l  c #B76335",
"z  c #B26C3B",
"x  c #D2612F",
"c  c #D36430",
"v  c #D46631",
"b  c #D56731",
"n  c #D66933",
"m  c #D66A32",
"M  c #D46937",
"N  c #D76C34",
"B  c #D97236",
"V  c #DA7236",
"C  c #DC7738",
"Z  c #DE7C3A",
"A  c #DF7D3A",
"S  c #E07F3C",
"D  c #817B6B",
"F  c #8A7C72",
"G  c #D77140",
"H  c #28860F",
"J  c #439116",
"K  c #699D1C",
"L  c #5E8022",
"P  c #78A622",
"I  c #7FAC26",
"U  c #7EA92E",
"Y  c #998A32",
"T  c #B19F32",
"R  c #81A632",
"E  c #83A13E",
"W  c #B4A43E",
"Q  c #E1823D",
"!  c #E3853E",
"~  c #E3873F",
"^  c #E4883F",
"/  c #E1CA33",
"(  c #E4CE3E",
")  c #E4CF3E",
"_  c #948845",
"`  c #93B640",
"'  c #B5A542",
"]  c #A79579",
"[  c #DC8050",
"{  c #E58A40",
"}  c #E68D41",
"|  c #E79248",
" . c #E8974F",
".. c #E48F51",
"X. c #EBA15D",
"o. c #E19060",
"O. c #E29361",
"+. c #E39E60",
"@. c #C1B974",
"#. c #EBA363",
"$. c #EAA468",
"%. c #EEAB6B",
"&. c #F0B679",
"*. c #A4CC42",
"=. c #E4CC43",
"-. c #E7D349",
";. c #E7CF53",
":. c #E8CB54",
">. c #EAD45B",
",. c #EFDF6C",
"<. c #EFCD74",
"1. c #EFD775",
"2. c #EBDD73",
"3. c #ECDD73",
"4. c #EDDF78",
"5. c #EFE17D",
"6. c #F1E374",
"7. c #F1E375",
"8. c #6E6C80",
"9. c #7E7590",
"0. c #847480",
"q. c #817887",
"w. c #817F94",
"e. c #877E99",
"r. c #8A889E",
"t. c #9086A3",
"y. c #9492A8",
"u. c #9592A8",
"i. c #9E9BB2",
"p. c #A298B5",
"a. c #A298B6",
"s. c #A7A5BC",
"d. c #ACA0BF",
"f. c #A8A5BC",
"g. c #C5AF91",
"h. c #DAC181",
"j. c #F2D782",
"k. c #F5CB95",
"l. c #F5DA91",
"z. c #EFE285",
"x. c #F0E58B",
"c. c #F7EC8A",
"v. c #F7ED93",
"b. c #F7EE97",
"n. c #F8EE96",
"m. c #F8EF9B",
"M. c #F8D5A3",
"N. c #F8DCA1",
"B. c #FBDFB1",
"V. c #FAE1AC",
"C. c #F7F0A3",
"Z. c #F8F0A3",
"A. c #F8F1AB",
"S. c #B1AEC6",
"D. c #B5A9C9",
"F. c #BBB8D0",
"G. c #FAF7CD",
/* pixels */
"F.F.F.F.F.F.F.F.F.F.F.F.F.F.F.F.D.D.D.D.D.D.D.D.D.D.D.D.D.D.D.D.",
"F.F.F.F.F.F.F.F.F.F.F.F.F.F.F.F.D.D.D.D.D.D.D.D.D.D.D.D.D.D.D.D.",
"F.F.F.F.F.F.F.F.F.F.F.F.F.F.F.F.D.D.D.D.D.D.D.D.D.D.D.D.D.D.D.D.",
"F.F.F.F.F.F.F.F.F.F.F.F.F.F.F.F.D.D.D.D.D.D.D.D.D.D.D.D.D.D.D.D.",
"F.F.F.F.F.F.F.F.F.F.F.F.F.F.F.F.D.D.D.D.D.D.D.D.D.D.D.D.D.D.D.D.",
"F.F.F.F.F.F.F.F.F.F.F.F.F.F.F.F.D.D.D.D.D.D.D.D.D.D.D.D.D.D.D.D.",
"F.F.F.F.F.F.F.F.F.F.F.F.F.F.F.F.D.D.D.D.D.D.D.D.D.D.D.D.D.D.D.D.",
"F.F.F.F.F.F.F.F.F.F.F.F.F.F.F.F.D.D.D.D.D.D.D.D.D.D.D.D.D.D.D.D.",
"F.F.F.F.F.F.F.F.F.F.F.F.F.F.F.F.D.D.D.D.D.D.D.D.D.D.D.D.D.D.D.D.",
"F.F.F.F.F.F.F.F.F.F.F.r.w.w.w.w.9.t.D.D.D.D.D.D.D.D.D.D.D.D.D.D.",
"F.F.F.F.F.F.F.F.F.F.F.4           3 D.D.D.D.D.D.D.D.D.D.D.D.D.D.",
"F.F.F.F.F.F.F.F.e e e _ Y Y Y Y ] F w w w D.D.D.D.D.D.D.D.D.D.D.",
"F.F.F.F.F.F.F.F.      T / / / / N.g.      D.D.D.D.D.D.D.D.D.D.D.",
"F.F.F.F.F.F.4   c.c.c.-.( c.c.c.) ;.B.o.x   w D.2     u D.D.D.D.",
"F.F.F.F.f.w.D 0 c.v.C.5.2.C.b.c.) ;.B.o.x # 8 9.9 = : r 9.d.D.D.",
"F.F.F.F.w.  @.c.c.Z.G.G.G.G.A.c.) ;.B.o.x x a   L P *.,   p.D.D.",
"D.D.D.D.9.  ' -.-.4.G.G.G.G.x.-./ ;.B.$.Q x a   & J I R E 7 y F.",
"D.D.D.a.q.O W ) ) 3.G.G.G.G.z.) =.:.M.#.^ v d o $ % K U ` 1 q F.",
"D.D.D.  ; / 6.c.c.Z.G.G.G.G.A.c.V.k.} B x } Z x + X H *   s.F.F.",
"D.D.D.  ; / 6.c.c.n.A.x.z.A.m.c.V.k.} S C } Z x + . * 6 8.S.F.F.",
"D.D.D.  ; / 6.c.c.c.c.-.( c.c.c.V.k.} } } } Z x +     8.F.F.F.F.",
"D.D.D.  ; / 6.c.c.c.c.-./ ) 1.V.X. .} } } v c x + < s.S.F.F.F.F.",
"D.D.D.  > ;.,.7.7.7.7.>.;.;.<.k.| } } } } N n x + < F.F.F.F.F.F.",
"D.D.D.  t B.;./ / / / l.B.B.&.} } } } } } } Z x + < F.F.F.F.F.F.",
"D.D.D.9.i t h.j.j.j.j.+.O.%...V { ! V Q } } z @ 0.r.F.F.F.F.F.F.",
"D.D.D.D.9.  g.B.B.B.B.[ b } C x ^ Q x A } } k   y.F.F.F.F.F.F.F.",
"D.D.D.D.9.  j G G G G M b } { ^ } } ^ { } v s   y.F.F.F.F.F.F.F.",
"D.D.D.D.e.3 p h x x x x b Q ~ } } { Q Q Q h - 5 i.F.F.F.F.F.F.F.",
"D.D.D.D.D.D.2   x x x x x x C } } Q x x x   e F.F.F.F.F.F.F.F.F.",
"D.D.D.D.D.D.t.9.@ @ @ g x x m V V l @ @ @ w.u.F.F.F.F.F.F.F.F.F.",
"D.D.D.D.D.D.D.D.      f x x x x x h       F.F.F.F.F.F.F.F.F.F.F.",
"D.D.D.D.D.D.D.D.D.D.D.2           5 F.F.F.F.F.F.F.F.F.F.F.F.F.F."
};
