/* XPM */
static char *result[] = {
/* columns rows colors chars-per-pixel */
"32 32 238 2 ",
"   c #211F30",
".  c #2E2935",
"X  c #22283B",
"o  c #342935",
"O  c #2F343D",
"+  c #31353D",
"@  c #3B333A",
"#  c #3C353D",
"$  c #473339",
"%  c #5A3D3E",
"&  c #64383C",
"*  c #673D3E",
"=  c #233145",
"-  c #233046",
";  c #263347",
":  c #2A3648",
">  c #2B3648",
",  c #2F3849",
"<  c #323A4A",
"1  c #4D3F40",
"2  c #394044",
"3  c #3E494A",
"4  c #38484E",
"5  c #25435B",
"6  c #29455C",
"7  c #2D485E",
"8  c #334653",
"9  c #3F5B5F",
"0  c #344E60",
"q  c #2D5168",
"w  c #3C5162",
"e  c #335768",
"r  c #385A6C",
"t  c #275470",
"y  c #2B5F7C",
"u  c #2B607C",
"i  c #3D6578",
"p  c #3E6578",
"a  c #3B6A78",
"s  c #3B6A79",
"d  c #4E4242",
"f  c #4F4445",
"g  c #49454E",
"h  c #414B4A",
"j  c #4C4D4D",
"k  c #514146",
"l  c #504747",
"z  c #564644",
"x  c #524A4A",
"c  c #564E4A",
"v  c #414F56",
"b  c #5C4E53",
"n  c #455350",
"m  c #4C5D56",
"M  c #42525C",
"N  c #535D54",
"B  c #555F56",
"V  c #5B5E54",
"C  c #644240",
"Z  c #6D4742",
"A  c #6E4A44",
"S  c #784442",
"D  c #7A4845",
"F  c #6E574B",
"G  c #74564A",
"H  c #705A4D",
"J  c #785F4F",
"K  c #655D51",
"L  c #6F5858",
"P  c #715E54",
"I  c #506057",
"U  c #7C6657",
"Y  c #405462",
"T  c #445563",
"R  c #4E6F6C",
"E  c #596A6E",
"W  c #5A7263",
"Q  c #5B7263",
"!  c #597468",
"~  c #456371",
"^  c #5F7C76",
"/  c #56707C",
"(  c #627060",
")  c #637362",
"_  c #607664",
"`  c #617C69",
"'  c #617D69",
"]  c #627C6A",
"[  c #627D6A",
"{  c #8A5549",
"}  c #955348",
"|  c #955D4D",
" . c #98584B",
".. c #A14744",
"X. c #A75148",
"o. c #AD5B4C",
"O. c #8E6F57",
"+. c #91775E",
"@. c #9E7258",
"#. c #A66450",
"$. c #B16451",
"%. c #B36450",
"&. c #B26854",
"*. c #B96F55",
"=. c #A37E5F",
"-. c #BC7457",
";. c #B87359",
":. c #BF7A5B",
">. c #817161",
",. c #807166",
"<. c #957E67",
"1. c #68806B",
"2. c #71856D",
"3. c #688770",
"4. c #6A8A77",
"5. c #708B71",
"6. c #6F9176",
"7. c #789677",
"8. c #779B7D",
"9. c #978067",
"0. c #978167",
"q. c #99866E",
"w. c #9A866E",
"e. c #9B8971",
"r. c #A38161",
"t. c #A98B6C",
"y. c #B19978",
"u. c #80A17E",
"i. c #CF9E6E",
"p. c #D1A373",
"a. c #D2A373",
"s. c #D3A675",
"d. c #D3A676",
"f. c #D8A974",
"g. c #D4A978",
"h. c #D4A979",
"j. c #D6AB7B",
"k. c #D7AE7D",
"l. c #D7AE7E",
"z. c #E5B27A",
"x. c #286685",
"c. c #296F90",
"v. c #2D7191",
"b. c #2A779A",
"n. c #2E7A9B",
"m. c #327D9D",
"M. c #2C89AF",
"N. c #338BAB",
"B. c #3688A9",
"V. c #4B889C",
"C. c #7EA583",
"Z. c #7EA682",
"A. c #4189A3",
"S. c #5093A8",
"D. c #77A3A7",
"F. c #77A3A8",
"G. c #7DB1BB",
"H. c #2D9AC5",
"J. c #2E9BC4",
"K. c #35A0C7",
"L. c #2FACDA",
"P. c #32A6D0",
"I. c #33AFDB",
"U. c #37B1DC",
"Y. c #37B1DD",
"T. c #37B2DD",
"R. c #3EB7E0",
"E. c #59ABC1",
"W. c #41B1D7",
"Q. c #4CB1D0",
"!. c #49B7D9",
"~. c #5BBCD6",
"^. c #51BCDC",
"/. c #43BAE1",
"(. c #46BDE2",
"). c #46BDE3",
"_. c #4ABFE4",
"`. c #58C3DF",
"'. c #62C2D9",
"]. c #63C2D9",
"[. c #4EC2E5",
"{. c #52C5E7",
"}. c #55C8E8",
"|. c #5DCDEB",
" X c #64CBE3",
".X c #68CDE5",
"XX c #68CEE5",
"oX c #61D1ED",
"OX c #64D3EE",
"+X c #65D3EE",
"@X c #68D6F0",
"#X c #6CD9F1",
"$X c #74DDF2",
"%X c #78DFF2",
"&X c #7CE1F3",
"*X c #87AB84",
"=X c #87AB85",
"-X c #87AC84",
";X c #87AC85",
":X c #85B089",
">X c #87B189",
",X c #8FB68B",
"<X c #8FB78B",
"1X c #8CBB8F",
"2X c #D9B382",
"3X c #DBB384",
"4X c #DCB887",
"5X c #DCB987",
"6X c #DFBE8D",
"7X c #97C191",
"8X c #93C596",
"9X c #96C796",
"0X c #9FCC98",
"qX c #E1C392",
"wX c #E1C492",
"eX c #E2C492",
"rX c #E3C695",
"tX c #E4C997",
"yX c #F5C990",
"uX c #E0C7A1",
"iX c #83D1DD",
"pX c #93D8DF",
"aX c #9BDCE1",
"sX c #90E1EB",
"dX c #80E2F3",
"fX c #80E2F4",
"gX c #84E4F4",
"hX c #88E6F4",
"jX c #90E2F4",
"kX c #9EE7F6",
"lX c #98EDF7",
"zX c #9CEFF7",
"xX c #9CEFF8",
"cX c #A3E7F7",
"vX c #A4F3F9",
"bX c #D1F3FB",
"nX c #D7F8FC",
"mX c #ECFAFD",
/* pixels */
"9X8X8X8X8X8X8X8X8X8X8X8X8X8X8X8X8X8X8X8X8X8X8X8X8X8X8X8X8X8X8X9X",
"0X9X8X8X8X8X8X8X8X8X8X8X8X8X8X8X8X8X8X8X8X8X8X8X8X8X8X8X8X8X9X0X",
"0X0X9X8X8X8X8X8X8X8X8X[ W W W W W W W W W W W W 6.8X8X8X8X9X0X0X",
"0X0X0X9X8X8X8X8X1X8.8.M T w 0 0 0 0 0 0 0 0 Y T ^ 8.8X8X9X0X0X0X",
"0X0X0X0X9X8X8X1X4.< > pXvXhX#X#X#X#X#X#X#X#XzXvXG.v :X9X0X0X0X0X",
"0X0X0X0X0X9X8Xm / vX#X#X#X#X#X#X#X#X#X#X#X#X#X#XgXaX  ,X0X0X0X0X",
"0X0X0X0X0X0X3 D.sX$X#XR.q > > > > > > > > > > > , <   ,X0X0X0X0X",
"0X0X0X0X7XI F.iX&X@X).y L S D O.O.O.O.+.w.O.q.e.<.O.O.N ,X0X0X0X",
"0X0X0X0X,X  aXgXOX^.b.k } $.;.i.i.i.i.p.4Xl.4XqX6Xj.i.F ) ;X0X0X",
"0X0X0X7Xu.> pXdX}.H.  #.X.;.i.i.i.i.i.i.a.eXh.5XrXwXp.i.1 _ 0X0X",
"0X0X0Xu.: #X#X#X}.H.  #.X.;.i.i.i.i.i.i.i.i.wXk.k.tXtXp.1 _ 0X0X",
"0X0X0Xu.  > > > ; -   #.X.;.i.i.i.i.i.i.i.i.p.5X4Xg.tXeXl _ 0X0X",
"0X0X5.c | =.y.t.@.{   #.X.;.i.i.i.i.i.i.i.i.i.s.k.6Xg.wXx _ 0X0X",
"0X0X_ o A J >.U G C   #.X.;.i.i.i.i.i.i.i.i.i.i.d.2X2X2Xf _ 0X0X",
"0X0X5.2   5 5 5 5 5   #.X.;.i.i.i.i.i.i.i.i.i.i.i.a.6Xh.d _ 0X0X",
"0X0X0Xu.= L.L.L.L.H.  #.X.;.i.i.i.i.i.i.i.i.i.i.i.i.i.wXx _ 0X0X",
"0X0X0Xu.= L.+X#X}.H.  #.X.o.:.i.i.i.;...........&.i.i.-.$ _ 0X0X",
"0X0X0Xu.= L.+X#XOX`.M.g  .o.o.:.:.:.*.%.%.%.%.%.*.:.:.% 2.,X0X0X",
"0X0X0X<X! x.!.oX#X@X[.v.b * & Z Z Z Z Z Z Z Z Z Z Z Z ( ,X0X0X0X",
"0X0X0X0X,Xh N.Q.|.|.#X/.u 5 5 5 5 5 5 5 5 5 5 5 5 5   ,X0X0X0X0X",
"0X0X0X0X0X0X+ c.J.K.#X#X(.U.U.U.U.U.U.U.U.U.U.P.J.M.  ,X0X0X0X0X",
"0X0X0X0X0X0X+     : #X#X#X#X#X#X#X#X#X#X#X#X#Xp       ,X0X0X0X0X",
"0X0X0X0X,X+ E.'.'.~.Y.+X#X#X#X#X#XbXmXnXxX#X#XXXV.= J.8 *X0X0X0X",
"0X0X0X=XB r.~ i A.W.t  X#X#X#X#X#XjXcXkXfX#X#X#XS.X t 9.V 7.0X0X",
"0X0X0Xu.# yX,.P E n.i .X#X#X#X#X#X#X%X&X#X#X#X#XS.. H z.z _ 0X0X",
"0X0X0X-Xj uXuX3X0.7 #X#X#X#X#X#X#X#XhXlX#X#X#X#XS.@ f.f.K 1.0X0X",
"0X0X0X0X,X      t T.#X#X#X#X#X#X#X#X#X#X#X#X#X#XS.      u.0X0X0X",
"0X0X0X0X9X:X:Xn t T.#X#Xr > > > > > > > > > ].#XS.O :X>X7X0X0X0X",
"0X0X0X9X8X8X8Xm t T.#X).6 m 8.8.8.8.8.' X M.+X{.m.O 8X8X9X0X0X0X",
"0X0X9X8X8X8X8Xm t I.[.v.R 8.8X8X8X8X8X8.= L._.B.s ` 8X8X8X9X0X0X",
"0X9X8X8X8X8X8XQ a M.M.4 C.8X8X8X8X8X8XZ.9 M.M.e ] 8X8X8X8X8X9X0X",
"9X8X8X8X8X8X8X8X3.    :X8X8X8X8X8X8X8X8X:X    3.8X8X8X8X8X8X8X9X"
};
