/* XPM */
static char *e7a2a621c4c843bb94df4c9278c4d316W4MLyWysRblPs8KK[] = {
/* columns rows colors chars-per-pixel */
"32 32 19 1 ",
"  c None",
". c black",
"X c #110600",
"o c #380507",
"O c #281000",
"+ c #381600",
"@ c #63090C",
"# c #5B2400",
"$ c #772F00",
"% c #7F3300",
"& c #910E12",
"* c #A81015",
"= c #D80000",
"- c #CEAC00",
"; c #FFD800",
": c #E38B55",
"> c #FF9D60",
", c gray77",
"< c white",
/* pixels */
"                                ",
"                                ",
"                                ",
"                                ",
"                                ",
"            OOOOOOOO            ",
"          OO########OO          ",
"         O##$$$$$$$$##O         ",
"         O##+$$$$$$+##O         ",
"         XOO#++++++#OOO         ",
"        X>X>O######O>X>X        ",
"        X:X>>OOOOOO>>X:X        ",
"        X:>><<>>>><<>>:X        ",
"        XX>><.>>>>.<>>XX        ",
"         X>><.>>>>.<>>X         ",
"         X>>>>>>>>>>>>X         ",
"         X::>>>>>>>>::X         ",
"          ..::::::::..          ",
"         .&&........&&.         ",
"        .&&@&&=;==&&@&&.        ",
"        .,&.&&*&&&&&.&,.        ",
"        .,,.&&*;&&&&.,,.        ",
"         ...&&*&&&&&...         ",
"           .o@@-@@@o.           ",
"           ..oooooo..           ",
"           .#......#.           ",
"           .%%.  .%%.           ",
"            ...  ...            ",
"                                ",
"                                ",
"                                ",
"                                "
};
