/* XPM */
static char *result[] = {
/* columns rows colors chars-per-pixel */
"32 32 235 2 ",
"   c #211F30",
".  c #2E2935",
"X  c #22283B",
"o  c #342935",
"O  c #3B333A",
"+  c #3C353D",
"@  c #473339",
"#  c #5A3D3E",
"$  c #64383C",
"%  c #673D3E",
"&  c #233145",
"*  c #233046",
"=  c #263347",
"-  c #2A3648",
";  c #2B3648",
":  c #2F3849",
">  c #343043",
",  c #343044",
"<  c #343244",
"1  c #323A4A",
"2  c #3E3C4E",
"3  c #4D3F40",
"4  c #25435B",
"5  c #29455C",
"6  c #2D485E",
"7  c #364459",
"8  c #3E4258",
"9  c #344E60",
"0  c #2D5168",
"q  c #3C5162",
"w  c #38566E",
"e  c #385A6C",
"r  c #275470",
"t  c #2B5F7C",
"y  c #2B607C",
"u  c #3D6578",
"i  c #3E6578",
"p  c #4E4242",
"a  c #4F4445",
"s  c #49454E",
"d  c #514146",
"f  c #504747",
"g  c #564644",
"h  c #524A4A",
"j  c #464257",
"k  c #4F4854",
"l  c #484558",
"z  c #454B5D",
"x  c #5C4E53",
"c  c #5A4B55",
"v  c #644240",
"b  c #6D4742",
"n  c #6E4A44",
"m  c #784442",
"M  c #7A4845",
"N  c #6E574B",
"B  c #74564A",
"V  c #705A4D",
"C  c #785F4F",
"Z  c #685A58",
"A  c #6F5858",
"S  c #715E54",
"D  c #7C6657",
"F  c #504B60",
"G  c #455160",
"H  c #405462",
"J  c #445563",
"K  c #4A586D",
"L  c #5B5263",
"P  c #5C5465",
"I  c #59536A",
"U  c #5B586C",
"Y  c #5B596C",
"T  c #615962",
"R  c #596A6E",
"E  c #456371",
"W  c #5B647F",
"Q  c #56707C",
"!  c #6D6377",
"~  c #63647E",
"^  c #6E6779",
"/  c #6B647D",
"(  c #8A5549",
")  c #955348",
"_  c #955D4D",
"`  c #98584B",
"'  c #A14744",
"]  c #A75148",
"[  c #AD5B4C",
"{  c #8E6F57",
"}  c #91775E",
"|  c #9E7258",
" . c #A66450",
".. c #B16451",
"X. c #B36450",
"o. c #B26854",
"O. c #B96F55",
"+. c #A37E5F",
"@. c #BC7457",
"#. c #B87359",
"$. c #BF7A5B",
"%. c #817161",
"&. c #807166",
"*. c #957E67",
"=. c #978067",
"-. c #978167",
";. c #99866E",
":. c #9A866E",
">. c #9B8971",
",. c #A38161",
"<. c #A98B6C",
"1. c #B19978",
"2. c #CF9E6E",
"3. c #D1A373",
"4. c #D2A373",
"5. c #D3A675",
"6. c #D3A676",
"7. c #D8A974",
"8. c #D4A978",
"9. c #D4A979",
"0. c #D6AB7B",
"q. c #D7AE7D",
"w. c #D7AE7E",
"e. c #E5B27A",
"r. c #286685",
"t. c #296F90",
"y. c #2D7191",
"u. c #2A779A",
"i. c #2E7A9B",
"p. c #327D9D",
"a. c #426582",
"s. c #426883",
"d. c #6E6C80",
"f. c #6A7386",
"g. c #78758A",
"h. c #78768A",
"j. c #7E7590",
"k. c #817A8C",
"l. c #817F94",
"z. c #877E99",
"x. c #2C89AF",
"c. c #3688A9",
"v. c #3489AF",
"b. c #4B889C",
"n. c #4189A3",
"m. c #5093A8",
"M. c #79A2AB",
"N. c #79A2AC",
"B. c #7DB1BB",
"V. c #2D9AC5",
"C. c #2E9BC4",
"Z. c #35A0C7",
"A. c #2FACDA",
"S. c #32A6D0",
"D. c #33AFDB",
"F. c #37B1DC",
"G. c #37B1DD",
"H. c #37B2DD",
"J. c #3EB7E0",
"K. c #59ABC1",
"L. c #41B1D7",
"P. c #4CB1D0",
"I. c #49B7D9",
"U. c #5BBCD6",
"Y. c #51BCDC",
"T. c #43BAE1",
"R. c #46BDE2",
"E. c #46BDE3",
"W. c #4ABFE4",
"Q. c #58C3DF",
"!. c #62C2D9",
"~. c #63C2D9",
"^. c #4EC2E5",
"/. c #52C5E7",
"(. c #55C8E8",
"). c #5DCDEB",
"_. c #64CBE3",
"`. c #68CDE5",
"'. c #68CEE5",
"]. c #61D1ED",
"[. c #64D3EE",
"{. c #65D3EE",
"}. c #68D6F0",
"|. c #6CD9F1",
" X c #74DDF2",
".X c #78DFF2",
"XX c #7CE1F3",
"oX c #808297",
"OX c #8A889E",
"+X c #9086A3",
"@X c #998FAC",
"#X c #998FAD",
"$X c #9A8EAD",
"%X c #9492A8",
"&X c #9E9BB2",
"*X c #9F9BB2",
"=X c #A397B6",
"-X c #A298B5",
";X c #A298B6",
":X c #A398B6",
">X c #A7A5BC",
",X c #A8A5BC",
"<X c #D9B382",
"1X c #DBB384",
"2X c #DCB887",
"3X c #DCB987",
"4X c #DFBE8D",
"5X c #E1C392",
"6X c #E1C492",
"7X c #E2C492",
"8X c #E3C695",
"9X c #E4C997",
"0X c #F5C990",
"qX c #E0C7A1",
"wX c #B1AEC6",
"eX c #B5A9C9",
"rX c #BBB8D0",
"tX c #83D1DD",
"yX c #93D8DF",
"uX c #9BDCE1",
"iX c #90E1EB",
"pX c #80E2F3",
"aX c #80E2F4",
"sX c #84E4F4",
"dX c #88E6F4",
"fX c #90E2F4",
"gX c #9EE7F6",
"hX c #98EDF7",
"jX c #9CEFF7",
"kX c #9CEFF8",
"lX c #A3E7F7",
"zX c #A4F3F9",
"xX c #D1F3FB",
"cX c #D7F8FC",
"vX c #ECFAFD",
/* pixels */
"rXrXrXrXrXrXrXrXrXrXrXrXrXrXrXrXeXeXeXeXeXeXeXeXeXeXeXeXeXeXeXeX",
"rXrXrXrXrXrXrXrXrXrXrXrXrXrXrXrXeXeXeXeXeXeXeXeXeXeXeXeXeXeXeXeX",
"rXrXrXrXrXrXrXrXrXrXrXh.d.d.d.d./ / / / / / / / z.eXeXeXeXeXeXeX",
"rXrXrXrXrXrXrXrXwX%X%XG J q 9 9 9 9 9 9 9 9 H J f.+XeXeXeXeXeXeX",
"rXrXrXrXrXrXrXwXoX1 ; yXzXdX|.|.|.|.|.|.|.|.jXzXB.z ;XeXeXeXeXeX",
"rXrXrXrXrXrXrXY Q zX|.|.|.|.|.|.|.|.|.|.|.|.|.|.sXuX  -XeXeXeXeX",
"rXrXrXrXrXrXl N.iX X|.J.0 ; ; ; ; ; ; ; ; ; ; ; : 1   -XeXeXeXeX",
"rXrXrXrXwXU M.tXXX}.E.t A m M { { { { } :.{ ;.>.*.{ { L :XeXeXeX",
"rXrXrXrX,X  uXsX[.Y.u.d ) ..#.2.2.2.2.3.2Xw.2X5X4X0.2.N ! $XeXeX",
"rXrXrXwX%X; yXpX(.V.   .] #.2.2.2.2.2.2.4.7X9.3X8X6X3.2.3 / eXeX",
"rXrXrX%X- |.|.|.(.V.   .] #.2.2.2.2.2.2.2.2.6Xq.q.9X9X3.3 / eXeX",
"rXrXrX%X  ; ; ; = *    .] #.2.2.2.2.2.2.2.2.3.3X2X8.9X7Xf / eXeX",
"rXrXl.c _ +.1.<.| (    .] #.2.2.2.2.2.2.2.2.2.5.q.4X8.6Xh / eXeX",
"rXrXd.o n C %.D B v    .] #.2.2.2.2.2.2.2.2.2.2.6.<X<X<Xa / eXeX",
"rXrXl.2   4 4 4 4 4    .] #.2.2.2.2.2.2.2.2.2.2.2.4.4X9.p / eXeX",
"rXrXrX%X& A.A.A.A.V.   .] #.2.2.2.2.2.2.2.2.2.2.2.2.2.6Xh / eXeX",
"eXeXeX+X& A.{.|.(.V.   .] [ $.2.2.2.#.' ' ' ' ' o.2.2.@.@ d.rXrX",
"eXeXeX+X& A.{.|.[.Q.x.s ` [ [ $.$.$.O.X.X.X.X.X.O.$.$.# k.,XrXrX",
"eXeXeX=X~ r.I.].|.}.^.y.x % $ b b b b b b b b b b b b ^ >XrXrXrX",
"eXeXeXeX;Xj v.P.).).|.T.y 4 4 4 4 4 4 4 4 4 4 4 4 4   >XrXrXrXrX",
"eXeXeXeXeXeX, t.C.Z.|.|.R.F.F.F.F.F.F.F.F.F.F.S.C.x.  >XrXrXrXrX",
"eXeXeXeXeXeX,     - |.|.|.|.|.|.|.|.|.|.|.|.|.i       >XrXrXrXrX",
"eXeXeXeX;X> K.!.!.U.G.{.|.|.|.|.|.xXvXcXkX|.|.'.b.& C.7 *XrXrXrX",
"eXeXeX#XP ,.E u n.L.r _.|.|.|.|.|.fXlXgXaX|.|.|.m.X r =.T OXrXrX",
"eXeXeX+X+ 0X&.S R i.u `.|.|.|.|.|.|..XXX|.|.|.|.m.. V e.g d.rXrX",
"eXeXeX@Xk qXqX1X-.6 |.|.|.|.|.|.|.|.dXhX|.|.|.|.m.O 7.7.Z h.rXrX",
"eXeXeXeX;X      r H.|.|.|.|.|.|.|.|.|.|.|.|.|.|.m.      %XrXrXrX",
"eXeXeXeXeX;X;XF r H.|.|.e ; ; ; ; ; ; ; ; ; ~.|.m.< >X>XwXrXrXrX",
"eXeXeXeXeXeXeXI r H.|.E.5 I +X+X%X%X%Xg.X x.{./.p.< rXrXrXrXrXrX",
"eXeXeXeXeXeXeXI r D.^.y.W +XeXeXrXrXrX%X& A.W.c.s.g.rXrXrXrXrXrX",
"eXeXeXeXeXeXeX/ a.x.x.8 #XeXeXeXrXrXrX&XK x.x.w h.rXrXrXrXrXrXrX",
"eXeXeXeXeXeXeXeXj.    -XeXeXeXeXrXrXrXrX,X    l.rXrXrXrXrXrXrXrX"
};
