/* XPM */
static char *result[] = {
/* columns rows colors chars-per-pixel */
"32 32 122 2 ",
"   c #7600AD",
".  c #7900BF",
"X  c #7E00D8",
"o  c #7F00D9",
"O  c #7F0EF5",
"+  c #7F0FF5",
"@  c #7C15F5",
"#  c #7A1DF6",
"$  c #7824F7",
"%  c #762BF7",
"&  c #762CF7",
"*  c #7332F8",
"=  c #7333F8",
"-  c #713AF9",
";  c #6848E1",
":  c #7756EF",
">  c #7757EF",
",  c #6B48F2",
"<  c #6F41FA",
"1  c #6D48FB",
"2  c #6A4FFB",
"3  c #7A41F0",
"4  c #6856FC",
"5  c #6857FC",
"6  c #715EF3",
"7  c #5F73FF",
"8  c #6465FD",
"9  c #616CFE",
"0  c #A300B8",
"q  c #BF00BF",
"w  c #900EC7",
"e  c #961FC1",
"r  c #9F1DD5",
"t  c #B700C5",
"y  c #B30EC7",
"u  c #B000CC",
"i  c #A71DCF",
"p  c #B21FC8",
"a  c #A100D9",
"s  c #B72DD7",
"d  c #A23BDF",
"f  c #BA3CDD",
"g  c #8000E1",
"h  c #8100EA",
"j  c #8200EF",
"k  c #8D1DE6",
"l  c #9E1FED",
"z  c #8300F3",
"x  c #8107F4",
"c  c #8108F4",
"v  c #9110F5",
"b  c #9917F5",
"n  c #AF1FE9",
"m  c #A01FF6",
"M  c #832BE2",
"N  c #8324ED",
"B  c #8B3BF3",
"V  c #A727F2",
"C  c #AF2EF7",
"Z  c #B536F8",
"A  c #B636F8",
"S  c #C60FC7",
"D  c #C117CD",
"F  c #CD1FCF",
"G  c #C826D5",
"H  c #D42ED7",
"J  c #D836DB",
"K  c #DB3EDF",
"L  c #8348E7",
"P  c #D75CEB",
"I  c #D75DEB",
"U  c #DA5CFC",
"Y  c #E24DE7",
"T  c #E05BEF",
"R  c #E95CEF",
"E  c #E95DEF",
"W  c #E55CF2",
"Q  c #ED64F3",
"!  c #E76BF5",
"~  c #E76CF5",
"^  c #EC6CF6",
"/  c #E86CF9",
"(  c #EC6CFA",
")  c #E96CFD",
"_  c #F06CF7",
"`  c #EF74FA",
"'  c #F373FB",
"]  c #F374FB",
"[  c #F074FE",
"{  c #F77BFF",
"}  c #A1BDA3",
"|  c #B0BCAB",
" . c #B2AEB7",
".. c #B8AABD",
"X. c #ABB3B0",
"o. c #B5B7B2",
"O. c #B5B8B1",
"+. c #B5B8B2",
"@. c #93C596",
"#. c #96C796",
"$. c #9FCC98",
"%. c #A5C79E",
"&. c #A4C79F",
"*. c #AAC1A5",
"=. c #AAC2A5",
"-. c #BFA5C4",
";. c #D09ED2",
":. c #D19ED2",
">. c #D296D8",
",. c #DB94DF",
"<. c #D699D8",
"1. c #C5A0CB",
"2. c #CBA3CB",
"3. c #DE8DE5",
"4. c #E18FE5",
"5. c #E589EB",
"6. c #E78AEB",
"7. c #E68AEC",
"8. c #EC85F2",
"9. c #F180F8",
"0. c #F180F9",
"q. c #F280F8",
/* pixels */
"#.@.@.@.@.@.@.@.@.@.@.@.@.@.@.@.@.@.@.@.@.@.@.@.@.@.@.@.@.@.@.#.",
"$.#.@.@.@.@.@.@.@.@.@.@.@.@.@.@.@.@.@.@.@.@.@.@.@.@.@.@.@.@.#.$.",
"$.$.#.@.@.@.@.@.@.@.@.@.@.@.@.@.@.@.@.@.@.@.@.@.@.@.@.@.@.#.$.$.",
"$.$.$.#.@.@.@.@.@.@.@.@.@.@.@.@.@.@.@.@.@.@.@.@.@.@.@.@.#.$.$.$.",
"$.$.$.$.#.@.@.@.@.@.@.@.@.@.@.@.@.@.@.@.@.@.@.@.@.@.@.#.$.$.$.$.",
"$.$.$.$.$.#.@.@.@.@.@.@.@.@.@.@.@.@.@.@.@.@.@.@.@.@.#.$.$.$.$.$.",
"$.$.$.$.$.$.#.@.1.>.>.>.>.>.>.>.>.>.>.>.>.>.>.-.@.#.$.$.$.$.$.$.",
"$.$.$.$.$.*.*.} 3.{ ~ / ) ) ( _ _ _ _ _ ^ ~ { 5.} *.&.$.$.$.$.$.",
"$.$.$.$.$.4.{ { { ~   o z z a q q q q q 0   ~ { { { 4.$.$.$.$.$.",
"$.$.$.| <.8.Q H H G X h z z N L L L L L M X V C C ) 0.<.=.$.$.$.",
"$.$.$.o.{ { E q q t z z z z - 7 7 7 7 7 1 z z z z U { { O.$.$.$.",
"$.$.8.{ { F i 7 7 7 7 & z z - 7 7 7 7 7 1 z z z z z m { { 8.$.$.",
"$.2.q._ K d L 7 7 7 7 2 = z - 7 7 7 7 < $ z z + - - B K _ 0.2.$.",
"$.{ { E q > 7 7 7 7 7 7 8 z - 7 7 7 7 O z z z # 7 7 : q R { { $.",
"$.{ v z z 5 7 7 7 7 7 7 7 7 7 7 7 7 7 O & 7 7 7 7 7 7 7 i S { $.",
"$.{ v z z * 1 1 9 7 7 7 7 7 7 7 7 7 7 * 1 7 7 7 7 7 7 7 i S { $.",
"$.{ v z z z z z 5 7 7 7 7 7 7 7 7 7 7 7 7 7 7 7 7 7 7 7 i S { $.",
"$.{ v z z z z z x # 7 7 7 7 7 7 7 7 7 7 2 O O & 7 7 7 7 i S { $.",
"$.{ Z l X j + & & = 7 7 7 7 7 7 7 7 7 7 4 & c + 1 1 , ; f J { $.",
"$.{ { I   g # 7 7 7 7 7 7 7 7 7 7 7 7 7 7 7 O z z z g   P { { $.",
"$.=.8.{ ! D r 7 7 7 7 7 7 7 < O 7 7 7 7 7 7 8 1 z z m ! ` 8.=.$.",
"$.$.,.6.{ J s > > > 7 7 7 5 % z 5 8 7 7 7 7 6 3 z b A { 6.<.$.$.",
"$.$.$.o.{ { E q q y 7 7 8 z z z z - 7 7 7 7 y u z U { { O.$.$.$.",
"$.$.$.%.+.6.' R R T i k @ z z z . w i i i i Y W U [ 7.+.&.$.$.$.",
"$.$.$.$.$.:.4.3.9._ F n m m m m e p F F F F ] 9.3.4.;.$.$.$.$.$.",
"$.$.$.$.$.$.#.@.3.{ { { { { { { { { { { { { { 3.@.#.$.$.$.$.$.$.",
"$.$.$.$.$.#.@.@.X............................. .@.@.#.$.$.$.$.$.",
"$.$.$.$.#.@.@.@.@.@.@.@.@.@.@.@.@.@.@.@.@.@.@.@.@.@.@.#.$.$.$.$.",
"$.$.$.#.@.@.@.@.@.@.@.@.@.@.@.@.@.@.@.@.@.@.@.@.@.@.@.@.#.$.$.$.",
"$.$.#.@.@.@.@.@.@.@.@.@.@.@.@.@.@.@.@.@.@.@.@.@.@.@.@.@.@.#.$.$.",
"$.#.@.@.@.@.@.@.@.@.@.@.@.@.@.@.@.@.@.@.@.@.@.@.@.@.@.@.@.@.#.$.",
"#.@.@.@.@.@.@.@.@.@.@.@.@.@.@.@.@.@.@.@.@.@.@.@.@.@.@.@.@.@.@.#."
};
