/* XPM */
static char *result[] = {
/* columns rows colors chars-per-pixel */
"32 32 195 2 ",
"   c #135E6E",
".  c #17696F",
"X  c #196F6F",
"o  c #166A71",
"O  c #156872",
"+  c #156975",
"@  c #166D76",
"#  c #196F70",
"$  c #1C6C73",
"%  c #1C7271",
"&  c #1F7472",
"*  c #187174",
"=  c #1D7A70",
"-  c #177378",
";  c #1B7879",
":  c #18797A",
">  c #1C7D7B",
",  c #187C7C",
"<  c #296A7A",
"1  c #296E7A",
"2  c #217174",
"3  c #227674",
"4  c #237674",
"5  c #247675",
"6  c #267976",
"7  c #287E76",
"8  c #2A707B",
"9  c #2A737B",
"0  c #227B78",
"q  c #297878",
"w  c #2B7B78",
"e  c #287A7C",
"r  c #347E7E",
"t  c #347F7E",
"y  c #1F8070",
"u  c #1F8372",
"i  c #218571",
"p  c #268175",
"a  c #278175",
"s  c #2A8476",
"d  c #22807E",
"f  c #29857B",
"g  c #308879",
"h  c #358F7C",
"j  c #3A8C7F",
"k  c #259072",
"l  c #259373",
"z  c #279572",
"x  c #279672",
"c  c #259475",
"v  c #289373",
"b  c #2E9077",
"n  c #289B72",
"m  c #299B72",
"M  c #2A9874",
"N  c #22937A",
"B  c #23977D",
"V  c #319D76",
"C  c #36907C",
"Z  c #339F78",
"A  c #3A997D",
"S  c #2AA072",
"D  c #2AA172",
"F  c #2BA172",
"G  c #2CA672",
"H  c #2CA673",
"J  c #29A277",
"K  c #2FA075",
"L  c #2EAB73",
"P  c #2EAC73",
"I  c #2BA877",
"U  c #35A478",
"Y  c #35A578",
"T  c #3FA37E",
"R  c #37AB78",
"E  c #3DAF7B",
"W  c #30B173",
"Q  c #37B576",
"!  c #39B079",
"~  c #3BB679",
"^  c #3AB978",
"/  c #3DBB79",
"(  c #3DBB7A",
")  c #40B57C",
"_  c #40BD7B",
"`  c #41BD7B",
"'  c #42BA7C",
"]  c #46B97F",
"[  c #43C07C",
"{  c #43C07D",
"}  c #44C07C",
"|  c #47C17E",
" . c #47C27E",
".. c #4BC57F",
"X. c #2F6E80",
"o. c #3A6D84",
"O. c #3A6D85",
"+. c #3C7186",
"@. c #397E84",
"#. c #3F7C87",
"$. c #47778B",
"%. c #507C91",
"&. c #517C93",
"*. c #597C96",
"=. c #1B8580",
"-. c #1D8E81",
";. c #1F9180",
":. c #398080",
">. c #3D8C81",
",. c #448787",
"<. c #489187",
"1. c #499E85",
"2. c #4D938A",
"3. c #4E9D8B",
"4. c #4C8292",
"5. c #528291",
"6. c #5B8296",
"7. c #548A90",
"8. c #5B8C97",
"9. c #63819B",
"0. c #66899F",
"q. c #4AA685",
"w. c #45A881",
"e. c #4FAA88",
"r. c #57A38D",
"t. c #4AB082",
"y. c #4BB082",
"u. c #4AB083",
"i. c #4BB083",
"p. c #4FB285",
"a. c #4FB884",
"s. c #4FB885",
"d. c #50B884",
"f. c #50B885",
"g. c #61A793",
"h. c #63AD96",
"j. c #61B391",
"k. c #778BA6",
"l. c #718EA5",
"z. c #6A97A4",
"x. c #6B97A4",
"c. c #7696A7",
"v. c #7B94AB",
"b. c #4AC480",
"n. c #4CC481",
"m. c #4DC781",
"M. c #4EC681",
"N. c #51C983",
"B. c #55C885",
"V. c #54CC85",
"C. c #57CE86",
"Z. c #5AC888",
"A. c #5ACD88",
"S. c #5BD087",
"D. c #5AD187",
"F. c #5BD187",
"G. c #5ED389",
"H. c #5FD08A",
"J. c #61D68A",
"K. c #61D68B",
"L. c #64D88C",
"P. c #69D98E",
"I. c #69D98F",
"U. c #6CC395",
"Y. c #7BC99E",
"T. c #6DD593",
"R. c #6EDB91",
"E. c #6EDC91",
"W. c #72D796",
"Q. c #73DD94",
"!. c #77DF97",
"~. c #7CE19A",
"^. c #8290AD",
"/. c #8C95B2",
"(. c #969AB8",
"). c #A19FBD",
"_. c #A09FBE",
"`. c #90A0B7",
"'. c #80D79F",
"]. c #81DC9E",
"[. c #81E39D",
"{. c #89CFA5",
"}. c #8BE7A1",
"|. c #8AE7A2",
" X c #8FE9A5",
".X c #94EBA7",
"XX c #B1F6B8",
"oX c #ABA4C3",
"OX c #A5ACC3",
"+X c #A6ACC4",
"@X c #B5A9C9",
"#X c #B1B2CA",
"$X c #BBB8D0",
"%X c #A5C0C9",
"&X c white",
/* pixels */
"$X$X$X$X$X$X$X$X$X$X$X$X$X$X$X$X@X@X@X@X@X@X@X@X@X@X@X@X@X@X@X@X",
"$X$X$X$X$X$X$X$X$X$X$X$X$X$X$X$X@X@X@X@X@X@X@X@X@X@X@X@X@X@X@X@X",
"$X$X$X$X$X$X$X$X$X$X$X$X$X$X$X$X@X@X@X@X@X@X@X@X@X@X@X@X@X@X@X@X",
"$X$X$X$X$X$X$X$X$X$X$X$X$X$X$X$X@X@X@X@X@X@X@X@X@X@X@X@X@X@X@X@X",
"$X$X$X$X$X$X$X$X$X$X$X$X$X$X$X$X@X@X@X@X@X@X@X@X@X@X@X@X@X@X@X@X",
"$X$X$X$X$X$X$X$X$X$X$X$X$X$X$X$X@X@X@X@X@X@X@X@X@X@X@X@X@X@X@X@X",
"$X$X$X$X$X$X$X$X$X$X$X$X$X$X$X$X@X@X@X@X@X@X@X@X@X@X@X@X@X@X@X@X",
"$X$X$X$X$X$X$X$X$X$X$X$X$X$X$X$X@X@X@X@X@X@X@X@X@X@X@X@X@X@X@X@X",
"$X$X$X$X$X$X$X$X$X$X$X$X$X$X$X$X@X@X@X@X@X@X@X@X@X@X@X@X@X@X@X@X",
"$X$X$X$X$X$X$X$X$X$X$X$X$X$X$X$X@X@X@X@X@X@X@X@X@X@X@X@X@X@X@X@X",
"$X$X$X$X$X$X$X$X$X$X$X$X$X$X$X$X@X@X@X@X@X@X@X@X@X@X@X@X@X@X@X@X",
"$X$X$X$X$X$X$X$X$X$X$X$X+.+.+.+.O.O.O.O.(.@X@X@X@X@X@X@X@X@X@X@X",
"$X$X$X$X$X$X$X$X`.8.6 6 P.Q.L.L.L.L.L.L.C 6 7./.oX@X@X@X@X@X@X@X",
"$X$X$X$X$X$X$Xc.g t.L.L.R.[.L.L.L.L.L.L.L.L.a.a 6.oX@X@X@X@X@X@X",
"$X$X$X$X$X$X0.p..X~.L.L.L.L.L.L.L.L.L.L.L.L.L.S.K $.@X@X@X@X@X@X",
"$X$X$X$X$Xl.b E.XX|.L.L.L.L.L.L.L.L.L.L.L.L.L.L./ n *.@X@X@X@X@X",
"@X@X@X@Xk.k C.L.f.f.'.I.L.L.L.L.L.L.L.L.L.L.~.[.L.Q n &.$X$X$X$X",
"@X@X@X).5.Y D.e.x.x.3.H.Z.w.w.w.i.L.L.L.L.L.L.Q.[.n.H ,.OX$X$X$X",
"@X@X@X/.= N.L.X.&X&Xz.Z.d.4.%X%X9 L.L.L.L.L.L.|.XXE.W k v.$X$X$X",
"@X@X@X/.= N.L.X.&X&Xz.Z.d.z.&X&X@.L.L.L.L.L.L.E.!.L.W k v.$X$X$X",
"@X@X_.X { L.L.! 6 6 U K.F.Z 6 6 ' L.L.L.L.L.L.L. XI.C.W = `.$X$X",
"@X@X_.X { L.L.w.d.L.L.y.d.Z.w.w.i.Z.w.Z.L.L.L.L.L.L.C.W = `.$X$X",
"@X@X_.X { L.A : ; u.w.> r j.+ : $ d.+ f Z.L.L.L.L.L.C.W = `.$X$X",
"@X@X_.X { L.6 -.c r.<.=.d e N I 5 Y.- @ s.L.L.L.L.L.C.W = `.$X$X",
"@X@X_.X { L.6 ;.n g.2.=.W W W W q {.- @ s.L.K.} W V.C.W = `.$X$X",
"@X@X_.X { L.6 ;.n g.2.=.W W W W 0 h., @ s.L.N.W W W C.W = `.$X$X",
"@X@X%.x { L.6 ;.n 1.j =.W m = G J l B @ s.L.G.` W m._ W n #.#X$X",
"@X@X1 W { L.R O = ] E * X >.U.p X X o u B.J.b.G.C.[ W W W # +X$X",
"@Xo.z D W ..C.(  .L.L.` ( M.L.| ( ( ( C.D.C.f.) W F t 4 k P 8 $X",
"@Xo.7 = k k k N.N.N.N.N.N.N.N.N.N.N.N.N.V v s i k   }.N.= y < $X",
"^.h ~ L k k k W ^ N.T.].].].].].A.W.` W n M / S k k [ / n T q.l.",
"9.. X X X X X X % 6 t :.:.:.:.:.w r & X X X X X X X X X X 3 2 +."
};
